<svg id="lodestone_lightnavy" data-name="lodestone_lightnavy" xmlns="http://www.w3.org/2000/svg" viewBox="0 0 180.57 194.54"><defs><style>.cls-1{fill:#92959c;}</style></defs><title>lodestone_lightnavy</title><path class="cls-1" d="M180.19,125.5c-.92-.15-1.68-5.32-2-6.24s-2.13-6.08-2.13-6.08c-1.82,7-8.21,15.21-13.69,15.21s-9.58-6.39-10-7.3.91-3.65,0-4.56-2.74-3.5-2.74-5,1.83-1.83,2.28-4.11S156,104.21,156,101s3.34-6.7,3.34-9-4.56-2.89-4.86-4.56,5.62-2.28,5.32-5.17-7.3-8.21-7.45-12.62,9.58-10.19,11.4-10.19,3.2-4.11.61-4.26-2-4.41.15-5.78,6.09-2.28,6.09-3.19,2.28-3.65,2.73-7.3-3-.91-6.38,2-6.39.15-8.37,1.06,2,6.84.76,7.45-1.37,1.68-2,4.56-7.76,1.37-8.22.16-2.12-3-3.19-2.44-4.87,1.83-5.63,1.07-4.56-2.13-4.41.15-2.73,5.78-4.56,5.78-4.86-5.17-5.62-6.69.6-3.8-.16-6.24-5.32.46-4.71,2.74-4.87,4-7.3,4.11-2.74-2.89-5.32-2.74-7.15-2.28-7.15-9.13,8.82-11.25,10.8-11.25,5.78,2.59,7.9,2.59,4.72-2.59,6.54-2.59,3.5,1.67,5,1.67,1.83-1.82,4.56-1.82,5.48,2,6.24-.91,6.54-10.8,9.58-14S156-3.91,151.75,1,139.73,10.69,137,9s-5.48-.15-8.82,3.46-8.52,2.93-11.26,1.26-3.8-3-9.27,5.32-11.41,9.43-21.29,7.6-9.13,8.06-14,16.12S62.18,47.18,57,43.84s1.22-6.24,1.22-6.24c8.06-4.71-1.52-6.84-4.42-7.6s-.45-8.36-3.49-8.36-6.84,10-11,14.9-8.82,1.37-9.73,2.74,2.13,6.84,5.62,9.27-2,5.93,1.22,8.06,0,9.74-4.11,5.17-9.12,8.67-13.07,9S1.65,62.54,5,65a3.17,3.17,0,0,1,.39.34c2.66,2.74-.52,9.88-.09,10.61s11.26,1.82,11.26,5.47-8.21,7.76-9,10S17,100,15.49,102.24s1.67,13.08,1.67,13.08C15.8,129.77,4.09,128.39.59,129.3s9.73,16.12,9.73,16.12S22.79,148.77,22.79,158s-6.39,11.87-6.39,11.87c7.3,1.06,21.29,4.1,30,9.27s2.28,12.47,7,13.69,11.86-7.6,16-6.54,11.71,6.39,14.6,5.93,8.06-13.23,14-11.1,14.3,10.49,14.3,10.49c2.89.31,9,2.89,9,2.89,2.74-21.9,23.42-22.35,24.33-23.87s-.91-12.17.31-15.52,5.93-3.49,8.36-4,5.17-.46,5-3.65,5.93-8.67,9.12-11,7.76-7.15,9.89-8.21,2.89-2.74,2-2.89M85.56,173.41a58.09,58.09,0,1,1,58.09-58.09,58.09,58.09,0,0,1-58.09,58.09"/></svg>
