<svg id="logo_navy" data-name="logo_navy" xmlns="http://www.w3.org/2000/svg" viewBox="0 0 2033.24 191.21"><defs><style>.cls-1{fill:none;}.cls-2{fill:#2f2f2f;}.cls-3{fill:#464646;}.cls-4{fill:#2c2f35;}</style></defs><title>logo_navy</title><path class="cls-1" d="M943.46,195V-4.9h199.8V195Zm100-5c3.75.16,6.69-1.76,9.57-3.78q40.15-28,80.29-56.13c7.21-5,7.87-10.35,2.38-17.22-5.81-7.29-11.59-14.62-17.38-21.92q-34-42.85-68-85.73c-1.84-2.32-3.76-4.24-6.95-4.2-3.49-.14-5.82,1.57-8,4.26q-42.3,53.1-84.74,106.1c-4.69,5.87-4.25,9.26,1.85,13.71q40.55,29.61,81.19,59.06C1036.79,186.32,1039.48,189.29,1043.5,190Z"/><path class="cls-2" d="M1043.4,1c3.19,0,5.11,1.88,6.95,4.2q34,42.9,68,85.73c5.79,7.3,11.57,14.63,17.38,21.92,5.49,6.87,4.83,12.17-2.38,17.22q-40.11,28.11-80.29,56.13c-2.88,2-5.82,3.94-9.58,3.78Z"/><path class="cls-3" d="M1043.4,1l.09,189c-4-.68-6.7-3.65-9.75-5.85q-40.68-29.42-81.19-59.06c-6.1-4.45-6.54-7.84-1.85-13.71q42.36-53.05,84.74-106.1C1037.58,2.56,1039.91.85,1043.4,1Z"/><path class="cls-4" d="M134.48,170.77A61.22,61.22,0,0,1,120.54,181a83.55,83.55,0,0,1-15.19,6.28,87.27,87.27,0,0,1-14.69,3.11,107.74,107.74,0,0,1-12.39.83,73.19,73.19,0,0,1-30.85-6.54A74,74,0,0,1,22.57,166.2,86.73,86.73,0,0,1,6,137.44Q0,120.63,0,99.93A116.75,116.75,0,0,1,3.43,71,100.7,100.7,0,0,1,13,46.48,92.2,92.2,0,0,1,27.65,26.8,87.44,87.44,0,0,1,46.27,12.27a89.91,89.91,0,0,1,21.6-9A88.91,88.91,0,0,1,91.29.14a136.64,136.64,0,0,1,19,1.59A139.26,139.26,0,0,1,134,7.5l-3.88,22.09-2.29,1.27a99,99,0,0,0-23.36-8.69,88.36,88.36,0,0,0-18.34-2.35,54.68,54.68,0,0,0-25.25,5.9A61.72,61.72,0,0,0,41,41.85a77,77,0,0,0-13,23.8,88.24,88.24,0,0,0-4.68,28.94,97.91,97.91,0,0,0,4.17,28.51,75.85,75.85,0,0,0,12.28,24.37,61.73,61.73,0,0,0,20,17q11.88,6.42,27.3,6.41a84.82,84.82,0,0,0,9.83-.63,74.1,74.1,0,0,0,11.43-2.35A103.9,103.9,0,0,0,121,163.34a84.57,84.57,0,0,0,13.48-7.43Z"/><path class="cls-4" d="M201,188.67V2.68h22.4V81.77h90V2.68h22.4v186h-22.4V101.45h-90v87.22Z"/><path class="cls-4" d="M418.93,188.67H397.79l62.27-186h23.77l62.38,186H522.67m0,0L478.34,46.1l-6.51-25.9h-2.29L463,46.1l-44.1,142.57Z"/><path class="cls-4" d="M651,188.67h-22.4V22.36H573l3.42-19.68H708.77l-3.42,19.68H651Z"/><path class="cls-4" d="M756.73,188.67H735.6l62.27-186h23.76l62.39,186H860.48m0,0L816.15,46.1l-6.51-25.9h-2.29l-6.51,25.9L756.73,188.67Z"/><path class="cls-4" d="M1247.6,188.67h-22.39V2.68h45.7a78.18,78.18,0,0,1,24.62,3.75,57.23,57.23,0,0,1,19.77,11,50.44,50.44,0,0,1,13.19,18q4.8,10.73,4.8,24.82a68.73,68.73,0,0,1-2.4,18.6,60.66,60.66,0,0,1-29,37,60.11,60.11,0,0,1-13.82,5.58,56.1,56.1,0,0,1-14.4,1.91c-.91,0-1.9,0-3-.07a31.94,31.94,0,0,1-3.88-.44l1.6-19a26.1,26.1,0,0,0,3.54.44q1.49.06,3,.06a38.18,38.18,0,0,0,13.77-2.47A30.69,30.69,0,0,0,1300,94.21a36,36,0,0,0,7.65-12.76,53.13,53.13,0,0,0,2.8-18.21,50.9,50.9,0,0,0-3-18.54A31.93,31.93,0,0,0,1298.73,32a35.49,35.49,0,0,0-13.83-7.3,66.08,66.08,0,0,0-18.33-2.35h-19Z"/><path class="cls-4" d="M1419.76,114.53v74.14h-22.4V2.68h47.31a64.65,64.65,0,0,1,22.62,3.81A53.31,53.31,0,0,1,1484.89,17a47.43,47.43,0,0,1,11.37,15.68,46.86,46.86,0,0,1,4,19.42,48.32,48.32,0,0,1-3,17.08,62,62,0,0,1-7.77,14.6,71.18,71.18,0,0,1-10.91,12,103.74,103.74,0,0,1-12.28,9.26l49.24,83.67h-26.85l-38.28-74.14Zm0-19.68h37.13a39.46,39.46,0,0,0,8.63-7.11,43.75,43.75,0,0,0,6.46-9.21,48.58,48.58,0,0,0,4-10.6,46,46,0,0,0,1.43-11.42A39.09,39.09,0,0,0,1475.17,43a28.88,28.88,0,0,0-6.91-10.86,32.42,32.42,0,0,0-11.6-7.17,46.71,46.71,0,0,0-16.33-2.6h-20.57Z"/><path class="cls-4" d="M1599.23,188.67h-22.39V2.68h22.39Z"/><path class="cls-4" d="M1721.57,171.53a42.23,42.23,0,0,0,13.94-2.22,31.61,31.61,0,0,0,11-6.35,29.18,29.18,0,0,0,7.14-9.84,30.5,30.5,0,0,0,2.57-12.7,26.36,26.36,0,0,0-3.48-14,36.61,36.61,0,0,0-9.14-10,68.3,68.3,0,0,0-13-7.68q-7.32-3.36-14.85-6.86t-14.86-7.55a55.79,55.79,0,0,1-13-9.9,46.53,46.53,0,0,1-9.14-13.78q-3.48-7.92-3.48-19.23A53.6,53.6,0,0,1,1679.41,30a46.1,46.1,0,0,1,11.49-16.19,50.16,50.16,0,0,1,17.48-10.16A67.86,67.86,0,0,1,1730.6.14,141.2,141.2,0,0,1,1773,7.5l-3.77,22.09-2.29,1.27a113.48,113.48,0,0,0-12.22-5.33,106.42,106.42,0,0,0-11.2-3.43,81.72,81.72,0,0,0-9.71-1.77,69.48,69.48,0,0,0-7.77-.51,37.66,37.66,0,0,0-12.17,1.84,26,26,0,0,0-9.25,5.33,23.91,23.91,0,0,0-5.95,8.51,29,29,0,0,0-2.11,11.36A28.14,28.14,0,0,0,1700,61.33a37.49,37.49,0,0,0,9.25,10.54A70.45,70.45,0,0,0,1722.37,80q7.32,3.57,14.91,7.11t14.91,7.62a65.87,65.87,0,0,1,13.09,9.46,41.78,41.78,0,0,1,9.25,12.76,41,41,0,0,1,3.49,17.64,53.87,53.87,0,0,1-4.4,21.52,56.12,56.12,0,0,1-12.34,18,59.47,59.47,0,0,1-19.08,12.44,63.54,63.54,0,0,1-24.63,4.64,84.89,84.89,0,0,1-11.93-.89,122,122,0,0,1-12.52-2.48,118.36,118.36,0,0,1-12.39-3.87,111.45,111.45,0,0,1-11.6-5.08l3.88-22.22,2.29-1.26a117.91,117.91,0,0,0,23.59,11.8A66.69,66.69,0,0,0,1721.57,171.53Z"/><path class="cls-4" d="M1842.77,188.67l12.69-186h33.59l41.36,129.87,6.4,24.25h2.28l6.29-24.25L1986.85,2.68h33.71l12.68,186h-22l-8.91-146L2001.36,16h-2.17l-6.62,25.39-45.25,143.46H1927.1L1881.39,41.65,1874.54,16h-2.17l-.69,26.41-8.91,146.25Z"/></svg>
