<svg xmlns="http://www.w3.org/2000/svg" viewBox="0 0 34.53 81.29"><defs><style>.cls-1{fill:#fff;}</style></defs><g id="レイヤー_2" data-name="レイヤー 2"><g id="レイヤー_1-2" data-name="レイヤー 1"><path class="cls-1" d="M27.44,10.26c1.37-1.51,1.66-1.73,1.94-1.73s.65.22,2,1.37c.62.57.83.83.83,1.11s-.21.62-1,1.12V15c0,11.56.08,12.67.08,14.33a3.65,3.65,0,0,1-1,2.88,4.69,4.69,0,0,1-3,.79.63.63,0,0,1-.72-.65c-.14-1.54-.9-2.08-3.88-2.95-.18,0-.18-.43,0-.43,1.9.14,3.42.18,4.39.18.65,0,.72-.14.72-.61V11.09H7.28v5.54c0,9.65.11,11.66.11,15.08,0,1-.68,1.44-1.94,1.44s-1.73-.25-1.73-1.22c0-2.85.14-5.65.14-17.1a64.71,64.71,0,0,0-.25-6.52,27.09,27.09,0,0,1,4.1,1.95h7.74V6H4.3a17.11,17.11,0,0,0-2.56.22L1.34,4.9a14.68,14.68,0,0,0,2.81.28h11.3V3.89c0-1.33-.07-2.7-.18-3.89,4.36.43,4.86.83,4.86,1.22s-.39.58-1.22.87V5.18h8.71c1.76-2.16,2.2-2.44,2.45-2.44s.75.28,2.66,1.69c.9.68,1.19,1,1.19,1.22s-.11.36-.47.36H18.91v4.25ZM18.91,22.64h3.2c1.48-1.8,1.91-2.09,2.16-2.09S25,20.84,26.4,22c.61.5.9.83.9,1.08s-.11.36-.47.36H18.91c0,2.52.14,5.33.14,6.3s-.64,1.55-2.08,1.55c-1,0-1.55-.29-1.55-1.23,0-.65.14-2.84.14-6.62H10.92a18.92,18.92,0,0,0-2.67.22l-.39-1.34a14.28,14.28,0,0,0,2.84.29h4.86V18.32H11.85a18.8,18.8,0,0,0-2.66.22l-.4-1.33a14.68,14.68,0,0,0,2.81.28h6.84a27.65,27.65,0,0,0,1.33-3.34,16.09,16.09,0,0,0,.65-2.63c2.88.83,3.92,1.29,3.92,1.76s-.21.51-1.26.65a18.65,18.65,0,0,1-3.7,3.56h2.44c1.3-1.58,1.73-1.87,2-1.87s.69.29,1.95,1.33c.5.44.79.76.79,1s-.11.36-.47.36H18.91ZM14.09,17.1c-.9,0-1.12-.29-1.62-2.09a8.7,8.7,0,0,0-1.7-3c-.1-.15,0-.29.18-.26,3.35.9,4.76,2,4.76,3.68A1.61,1.61,0,0,1,14.09,17.1Z"/><path class="cls-1" d="M8,47.66c2.05,1,3.13,2.38,3.13,4,0,1-.54,1.76-1.26,1.76-.54,0-.79-.39-.79-1.29a6.53,6.53,0,0,0-1.08-4c0,6.84.15,17.78.15,19.73,0,.82-.76,1.18-1.84,1.18-.9,0-1.4-.28-1.4-1,0-2.56.14-8.35.32-16.13A24.29,24.29,0,0,1,.34,60.55c-.11.14-.4,0-.33-.22A57.92,57.92,0,0,0,4.58,45.07H3.4a13.39,13.39,0,0,0-2.27.22L.73,44a13.31,13.31,0,0,0,2.67.28H5v-3.6A41.5,41.5,0,0,0,4.8,36c4.14.46,4.35.54,4.35,1.15,0,.32-.25.54-1.15.9v6.15h.65c1-1.62,1.44-1.9,1.69-1.9s.69.28,1.91,1.33c.5.47.79.79.79,1s-.11.36-.47.36H8Zm21.17,18.9c1.62-1.73,2-2,2.3-2s.72.29,2.16,1.44c.61.47.9.8.9,1s-.11.36-.47.36H12.79A22.74,22.74,0,0,0,10,67.6l-.4-1.33a18.51,18.51,0,0,0,3.24.29Zm-7.81-27a48.77,48.77,0,0,1-2,5h1.4c1-1.19,1.3-1.4,1.59-1.4s.65.21,1.76,1.08c.51.43.72.68.72,1s-.11.36-.93,1C23.73,54.65,23.52,59,23,61.34a6.77,6.77,0,0,1-1.47,3.28,3.56,3.56,0,0,1-2.56,1c-.47,0-.68-.1-.75-.46-.22-1.44-.8-1.91-3.35-2.52-.18,0-.18-.47,0-.47,1.91.18,2.88.21,3.45.21,1.3,0,1.73-.54,2-2.44.36-2.85.51-5.94.65-14.58H19l-.18.36A1.77,1.77,0,0,1,17,46.94c-1,0-1.73-.36-1.73-1a1.8,1.8,0,0,1,.22-.65,40.7,40.7,0,0,0,2.59-5.76H14.37a23,23,0,0,0-2.84.22l-.4-1.33a19.53,19.53,0,0,0,3.24.29H28.59c1.44-1.8,1.87-2.09,2.13-2.09s.72.29,2.23,1.44c.68.57,1,.86,1,1.11s-.11.36-.47.36ZM14.09,58.21v1.22c0,.72-.51,1-1.48,1-.72,0-1.08-.25-1.08-.87,0-1.15.11-2.59.11-7.27,0-1.4,0-2.81-.11-4.21a24.91,24.91,0,0,1,2.66,1.4h2.06c.79-1.11,1.08-1.33,1.36-1.33s.62.22,1.48,1a1.32,1.32,0,0,1,.54.86c0,.26-.18.44-.76.76V52.2c0,3.56.07,6.15.07,6.95s-.53,1.08-1.43,1.08-1.12-.29-1.12-.9V58.21Zm2.3-7.85h-2.3v7h2.3Zm12.49-3.2c1-1.19,1.33-1.41,1.62-1.41s.68.19,1.87,1.26c.58.51.76.8.76,1.08s-.29.51-1.23.94A32.85,32.85,0,0,1,30,55.33c1.77,1.94,2.92,4,2.92,5.61a1.53,1.53,0,0,1-1.48,1.7c-.83,0-.93-.11-1.65-2.34a15.22,15.22,0,0,0-1-2.45,18.44,18.44,0,0,1-6.19,6.8c-.14.11-.32-.11-.21-.25a25.51,25.51,0,0,0,5-9,22.5,22.5,0,0,0-3.1-4c-.14-.11.07-.43.22-.36a20.58,20.58,0,0,1,3.45,2.38,45.52,45.52,0,0,0,1-5.4h-2.3a6.64,6.64,0,0,0-1.88.28l-.39-1.4a9.09,9.09,0,0,0,2.27.29Z"/><path class="cls-1" d="M34.28,76.79a4.48,4.48,0,1,1-4.46-4.47A4.47,4.47,0,0,1,34.28,76.79Zm-7.78,0a3.3,3.3,0,1,0,3.32-3.28A3.26,3.26,0,0,0,26.5,76.79Z"/></g></g></svg>