<svg xmlns="http://www.w3.org/2000/svg" viewBox="0 0 81.07 33.15"><defs><style>.cls-1{fill:#040000;}</style></defs><g id="レイヤー_2" data-name="レイヤー 2"><g id="レイヤー_1-2" data-name="レイヤー 1"><path class="cls-1" d="M26.1,10.26C27.46,8.75,27.75,8.53,28,8.53s.65.22,2,1.37c.61.57.83.83.83,1.11s-.22.62-1,1.12V15c0,11.56.07,12.67.07,14.33a3.62,3.62,0,0,1-1,2.88,4.64,4.64,0,0,1-3,.79.63.63,0,0,1-.72-.65c-.14-1.54-.9-2.08-3.89-2.95-.18,0-.18-.43,0-.43,1.91.14,3.42.18,4.39.18.65,0,.72-.14.72-.61V11.09H5.94v5.54c0,9.65.11,11.66.11,15.08,0,1-.69,1.44-1.95,1.44s-1.72-.25-1.72-1.22c0-2.85.14-5.65.14-17.1,0-2.05,0-4.46-.25-6.52a27.09,27.09,0,0,1,4.1,1.95h7.74V6H3A17,17,0,0,0,.4,6.23L0,4.9a14.68,14.68,0,0,0,2.81.28h11.3V3.89c0-1.33-.07-2.7-.18-3.89,4.36.43,4.86.83,4.86,1.22s-.4.58-1.22.87V5.18h8.71C28,3,28.47,2.74,28.72,2.74s.76.28,2.67,1.69c.9.68,1.19,1,1.19,1.22s-.11.36-.47.36H17.57v4.25ZM17.57,22.64h3.2c1.48-1.8,1.91-2.09,2.16-2.09s.72.29,2.12,1.48c.61.5.9.83.9,1.08s-.11.36-.47.36H17.57c0,2.52.14,5.33.14,6.3s-.65,1.55-2.09,1.55c-1,0-1.55-.29-1.55-1.23,0-.65.15-2.84.15-6.62H9.57a18.8,18.8,0,0,0-2.66.22l-.39-1.34a14.28,14.28,0,0,0,2.84.29h4.86V18.32H10.51a18.8,18.8,0,0,0-2.66.22l-.4-1.33a14.68,14.68,0,0,0,2.81.28H17.1a27.65,27.65,0,0,0,1.33-3.34,17.2,17.2,0,0,0,.65-2.63C22,12.35,23,12.81,23,13.28s-.21.51-1.26.65A18.64,18.64,0,0,1,18,17.49h2.45c1.3-1.58,1.73-1.87,2-1.87s.69.29,1.94,1.33c.51.44.8.76.8,1s-.11.36-.47.36H17.57ZM12.74,17.1c-.9,0-1.11-.29-1.62-2.09a8.5,8.5,0,0,0-1.69-3c-.11-.15,0-.29.18-.26,3.35.9,4.75,2,4.75,3.68A1.61,1.61,0,0,1,12.74,17.1Z"/><path class="cls-1" d="M42.66,11.66c2.05,1,3.13,2.38,3.13,4,0,1-.54,1.76-1.26,1.76-.54,0-.79-.39-.79-1.29a6.53,6.53,0,0,0-1.08-4c0,6.84.14,17.78.14,19.73,0,.82-.75,1.18-1.83,1.18-.9,0-1.41-.28-1.41-1,0-2.56.15-8.35.33-16.13A24.15,24.15,0,0,1,35,24.55c-.11.14-.39,0-.32-.22A57.92,57.92,0,0,0,39.24,9.07H38.05a13.48,13.48,0,0,0-2.27.22L35.39,8a13.29,13.29,0,0,0,2.66.28h1.59V4.64A41.5,41.5,0,0,0,39.46,0c4.14.46,4.35.54,4.35,1.15,0,.32-.25.54-1.15.9V8.24h.65c1-1.62,1.44-1.9,1.69-1.9s.68.28,1.91,1.33c.5.47.79.79.79,1s-.11.36-.47.36H42.66Zm21.16,18.9c1.62-1.73,2.06-2,2.31-2s.72.29,2.16,1.44c.61.47.9.8.9,1.05s-.11.36-.47.36H47.45a22.76,22.76,0,0,0-2.85.21l-.39-1.33a18.35,18.35,0,0,0,3.24.29ZM56,3.56a48.7,48.7,0,0,1-2,5h1.4c1-1.19,1.3-1.4,1.59-1.4s.64.21,1.76,1.08c.5.43.72.68.72,1s-.11.36-.94,1c-.14,8.46-.36,12.78-.86,15.15a6.68,6.68,0,0,1-1.48,3.28,3.52,3.52,0,0,1-2.55,1c-.47,0-.69-.1-.76-.46-.21-1.44-.79-1.91-3.35-2.52-.18,0-.18-.47,0-.47,1.91.18,2.88.21,3.46.21,1.3,0,1.73-.54,2-2.44.36-2.85.5-5.94.65-14.58h-2l-.18.36a1.79,1.79,0,0,1-1.8,1.22c-1,0-1.73-.36-1.73-1a1.62,1.62,0,0,1,.22-.65,43.11,43.11,0,0,0,2.59-5.76H49a23,23,0,0,0-2.84.22l-.4-1.33A19.53,19.53,0,0,0,49,2.74H63.25C64.69.94,65.12.65,65.37.65s.72.29,2.23,1.44c.69.57,1,.86,1,1.11s-.11.36-.47.36ZM48.74,22.21v1.22c0,.72-.5,1.05-1.47,1.05-.72,0-1.08-.25-1.08-.87,0-1.15.1-2.59.1-7.27,0-1.4,0-2.81-.1-4.21a25.91,25.91,0,0,1,2.66,1.4h2c.79-1.11,1.08-1.33,1.37-1.33s.61.22,1.48,1a1.32,1.32,0,0,1,.54.86c0,.26-.18.44-.76.76V16.2c0,3.56.07,6.15.07,7s-.54,1.08-1.44,1.08-1.11-.29-1.11-.9V22.21Zm2.31-7.85H48.74v7h2.31Zm12.49-3.2c1-1.19,1.33-1.41,1.62-1.41S65.84,9.93,67,11c.57.51.75.8.75,1.08s-.28.51-1.22.94a33.58,33.58,0,0,1-1.87,6.3c1.76,1.94,2.91,4,2.91,5.61a1.53,1.53,0,0,1-1.47,1.7c-.83,0-.94-.11-1.66-2.34a15.1,15.1,0,0,0-1-2.45,18.52,18.52,0,0,1-6.19,6.8c-.14.11-.32-.11-.22-.25a25.35,25.35,0,0,0,5-9,22.49,22.49,0,0,0-3.09-4c-.15-.11.07-.43.21-.36a20.26,20.26,0,0,1,3.46,2.38,47.63,47.63,0,0,0,1-5.4H61.41a6.62,6.62,0,0,0-1.87.28l-.39-1.4a9,9,0,0,0,2.26.29Z"/><path class="cls-1" d="M81.07,28a4.48,4.48,0,1,1-4.46-4.46A4.47,4.47,0,0,1,81.07,28ZM73.3,28a3.29,3.29,0,1,0,3.31-3.27A3.26,3.26,0,0,0,73.3,28Z"/></g></g></svg>