<svg id="symbol_black" data-name="symbol_black" xmlns="http://www.w3.org/2000/svg" viewBox="0 0 191.85 188.98"><defs><style>.cls-1{fill:none;}.cls-2{fill:#333;}</style></defs><title>symbol_black</title><path class="cls-1" d="M-4.07,194V-5.89h199.8V194Zm100-5c3.76.17,6.69-1.76,9.58-3.77q40.15-28.07,80.29-56.14c7.2-5,7.86-10.35,2.38-17.22-5.82-7.29-11.59-14.61-17.39-21.92q-34-42.86-68-85.73C101,1.88,99.06,0,95.86,0c-3.48-.14-5.81,1.57-8,4.26q-42.3,53.1-84.74,106.1c-4.69,5.87-4.26,9.26,1.85,13.72q40.55,29.6,81.19,59.05C89.26,185.34,92,188.31,96,189Z"/><path d="M95.86,0c3.2,0,5.11,1.88,7,4.2q34,42.9,68,85.73c5.8,7.31,11.57,14.63,17.39,21.92,5.48,6.87,4.82,12.17-2.38,17.22q-40.12,28.11-80.29,56.14c-2.89,2-5.82,3.94-9.58,3.77Q95.92,94.5,95.86,0Z"/><path class="cls-2" d="M95.86,0q.06,94.49.1,189c-4-.67-6.7-3.64-9.75-5.85q-40.68-29.4-81.19-59c-6.11-4.46-6.54-7.85-1.85-13.72Q45.53,57.3,87.91,4.26C90.05,1.57,92.38-.14,95.86,0Z"/></svg>
