<svg id="レイヤー_1" data-name="レイヤー 1" xmlns="http://www.w3.org/2000/svg" viewBox="0 0 250 203.1"><defs><style>.cls-1{fill:#2c2f35;}</style></defs><title>アートボード 1</title><g id="レイヤー_2" data-name="レイヤー 2"><g id="レイヤー_1-2" data-name="レイヤー 1-2"><g id="Logo_FIXED" data-name="Logo FIXED"><path class="cls-1" d="M78.6,203.1c94.4,0,145.9-78.1,145.9-145.9,0-2.2,0-4.4-.1-6.6A106.12,106.12,0,0,0,250,24a104.26,104.26,0,0,1-29.5,8.1A51.37,51.37,0,0,0,243,3.8a100.9,100.9,0,0,1-32.6,12.4A51.34,51.34,0,0,0,123,63,145.84,145.84,0,0,1,17.4,9.4,51.2,51.2,0,0,0,33.3,77.8,50.27,50.27,0,0,1,10,71.4v.7a51.37,51.37,0,0,0,41.2,50.3,50.57,50.57,0,0,1-23.2.9,51.31,51.31,0,0,0,47.9,35.6,103,103,0,0,1-63.7,22c-4.1,0-8.2-.3-12.2-.7a145.85,145.85,0,0,0,78.6,22.9"/></g></g></g></svg>