<svg xmlns="http://www.w3.org/2000/svg" viewBox="0 0 250 203.06"><g id="レイヤー_2" data-name="レイヤー 2"><g id="レイヤー_1-2" data-name="レイヤー 1"><g id="レイヤー_2-2" data-name="レイヤー 2"><g id="レイヤー_1-2-2" data-name="レイヤー 1-2"><g id="Logo_FIXED" data-name="Logo FIXED"><path d="M78.6,203.06c94.4,0,145.9-78.1,145.9-145.9,0-2.2,0-4.4-.1-6.6A106.11,106.11,0,0,0,250,24a103.93,103.93,0,0,1-29.5,8.1A51.34,51.34,0,0,0,243,3.76a101,101,0,0,1-32.6,12.4A51.34,51.34,0,0,0,123,63,145.84,145.84,0,0,1,17.4,9.36a51.21,51.21,0,0,0,15.9,68.4A50.26,50.26,0,0,1,10,71.36v.7a51.37,51.37,0,0,0,41.2,50.3,50.55,50.55,0,0,1-23.2.9,51.3,51.3,0,0,0,47.9,35.6,103,103,0,0,1-63.7,22c-4.1,0-8.2-.3-12.2-.7a145.84,145.84,0,0,0,78.6,22.9"/></g></g></g></g></g></svg>